<svg xmlns="http://www.w3.org/2000/svg" width="686.836" height="539.615" viewBox="0 0 686.836 539.615"><g transform="translate(-42.28 -22.771)"><path d="M119.347,131.19s-23.23,21.174-13.423,59.59c6.779,26.281,27.479,95.2-47.094,93.351l1.9,16.994s74.731,9.785,86.617-53.85C160.9,175.346,119.347,131.19,119.347,131.19Z" transform="translate(20.849 135.324)" fill="#1c5d7c"/><rect width="481.491" height="312.843" rx="10" transform="translate(184.855 135.266)" fill="#e4d8d8" opacity="0.27"/><path d="M202.034,192.2l-18.3,116.175H305.713L277.669,192.2Z" transform="translate(178.195 212.183)" fill="#c9c9c9"/><ellipse cx="309.25" cy="18.169" rx="309.25" ry="18.169" transform="translate(110.615 526.049)" fill="#141722" opacity="0.45"/><rect width="481.491" height="71.454" rx="10" transform="translate(175.855 368.656)" fill="#e6e6e6"/><circle cx="19.344" cy="19.344" r="19.344" transform="translate(399.957 380.791)" fill="#a5a5a5"/><rect width="171.54" height="37.332" transform="translate(334.107 500.197)" fill="#e6e6e6"/><path d="M101.43,103.776s19.321-11.547,24.609,9.333,9.265,44.02,27.637,49.466S107.6,145.288,107.6,145.288Z" transform="translate(74.516 96.775)" fill="#261919" opacity="0.4"/><circle cx="8.429" cy="8.429" r="8.429" transform="translate(206.588 150.045)" fill="#942864"/><circle cx="8.429" cy="8.429" r="8.429" transform="translate(231.649 150.045)" fill="#207ca6"/><path d="M8.429,0A8.429,8.429,0,1,1,0,8.429,8.429,8.429,0,0,1,8.429,0Z" transform="translate(255.264 150.045)" fill="#31c326"/><path d="M100.305,247.68s-4.271,6.056-10.485,4.9S80.4,256.945,85.436,260s21.039-.136,21.039-.136l2.011-8.881Z" transform="translate(51.235 282.075)" fill="#68e1fd"/><path d="M157.475,131.19s22.733.113,29.852,46.958,15.638,124.627-62.777,125.44h0V247.93Z" transform="translate(103.642 135.324)" fill="#261919" opacity="0.4"/><path d="M143.058,120.4s64.132,0,71.68,35.591-33.354,142.027-33.354,142.027L109.071,294.9s3.028-39.591-7.887-71.612S49.571,133.733,143.058,120.4Z" transform="translate(51.259 121.731)" fill="#207ca6"/><path d="M163.842,138.05s-20.338,20.5-10.079,52.969-60.4,31.637-60.4,31.637a205.642,205.642,0,0,1,2.26,20.5s30.823,23.163,78.279,17.219l2.847-8.135,12.18-29.919Z" transform="translate(64.349 143.966)" opacity="0.08"/><path d="M90.6,113.786s4.271,13.062,9.943,20.519a6.892,6.892,0,0,0,9.694,1.288,15.186,15.186,0,0,0,6.463-15.208l-.9-12.632a12.316,12.316,0,0,0-10.146-9.988C96.337,95.663,87.7,105.967,90.6,113.786Z" transform="translate(60.152 92.866)" fill="#f4a28c"/><path d="M107.541,105.14l15.638,34.484-20.361,15.118-4.068-32.45Z" transform="translate(71.139 102.506)" fill="#f4a28c"/><path d="M101.622,115.755a55.7,55.7,0,0,0,11.3-5.853,11.412,11.412,0,0,0,4.926,11.547,9.31,9.31,0,0,0,11.819-.972l-7.186-16.135a13.965,13.965,0,0,0-11.3-8.7,48.205,48.205,0,0,0-6.553-.339c-5.469,0-10.982,6.124-16.519,4.768a3.3,3.3,0,0,0-4.045,4.045c1.378,5.243,5.559,12.632,13.378,12.5a13.265,13.265,0,0,0,4.181-.859Z" transform="translate(52.494 90.107)" fill="#0e9295"/><path d="M98.544,110.462s-1.966-4.9,1.83-6.079,6.779,5.9,2.034,8.655Z" transform="translate(70.238 101.388)" fill="#f4a28c"/><path d="M92.511,108.28l-1.491,6.373a2.26,2.26,0,0,0,2.6,2.621l5.22-1.13Z" transform="translate(61.357 106.462)" fill="#f4a28c"/><path d="M99,120.221s4.655-6.4,4.678-10.531a20.2,20.2,0,0,1-3.231,22.349Z" transform="translate(71.454 108.238)" fill="#ce8172" opacity="0.31"/><path d="M170.522,136.647a18.3,18.3,0,0,1,30.6,4.994c8.655,20.338,18.575,56.494,3.751,95.769-22.6,60.042-112.13-6.237-112.13-6.237L106.3,216.484s47.094,22.259,65.782,10.689C187.583,217.569,147.268,163.651,170.522,136.647Z" transform="translate(63.568 134.387)" fill="#68e1fd"/><path d="M170.522,136.647a18.3,18.3,0,0,1,30.6,4.994c8.655,20.338,18.575,56.494,3.751,95.769-22.6,60.042-112.13-6.237-112.13-6.237L106.3,216.484s47.094,22.259,65.782,10.689C187.583,217.569,147.268,163.651,170.522,136.647Z" transform="translate(63.568 134.387)" fill="#fff" opacity="0.2"/><path d="M102.988,185.255S87.305,182.181,86.13,169.73s17.2,5.921,20.451,0,9.446-6.147,8,2.847Z" transform="translate(55.173 178.294)" fill="#f4a28c"/><path d="M118.78,240.588s5.514,4.949,3.616,10.983,3.186,9.9,6.779,5.265,2.441-20.9,2.441-20.9l-8.565-3.073Z" transform="translate(96.373 263.405)" fill="#68e1fd"/><path d="M101.078,314.267l-12.248-3.31,34.642-97.2-13.92-16.026L174,200.609a41.546,41.546,0,0,1-15.525,30.171,94.444,94.444,0,0,0-16.112,15.981,376.49,376.49,0,0,0-41.286,67.506Z" transform="translate(58.642 218.788)" fill="#8f4161"/><path d="M95.562,197.57l-1.921,47.445a22.441,22.441,0,0,0,12.7,21.2l45.2,21.725,4.52-10.965L129.8,257.818A19.869,19.869,0,0,1,122.68,235.5l12-36.321Z" transform="translate(64.678 218.537)" fill="#b55e81"/><path d="M251.271,144.777H239.52v-27.5a16.971,16.971,0,1,0-33.9,0v27.5H193.85v-27.5a28.744,28.744,0,0,1,57.466,0Z" transform="translate(190.944 82.598)" fill="#68e1fd"/><path d="M251.271,144.777H239.52v-27.5a16.971,16.971,0,1,0-33.9,0v27.5H193.85v-27.5a28.744,28.744,0,0,1,57.466,0Z" transform="translate(190.944 82.598)" fill="#1d79d6" opacity="0.46"/><rect width="87.905" height="70.076" rx="15" transform="translate(369.541 206.358)" fill="#1d79d6"/><path d="M220.429,121.273a9.288,9.288,0,1,0-18.553,0,9.039,9.039,0,0,0,3.005,6.779v19.705h12.745V127.917A9.333,9.333,0,0,0,220.429,121.273Z" transform="translate(201.041 110.553)" fill="#252c4a"/><path d="M15,0H115.478a0,0,0,0,1,0,0V35.343a0,0,0,0,1,0,0H15a15,15,0,0,1-15-15V15A15,15,0,0,1,15,0Z" transform="translate(330.243 303.258)" fill="#fff"/><path d="M0,0H36.387a15,15,0,0,1,15,15v5.343a15,15,0,0,1-15,15H0a0,0,0,0,1,0,0V0A0,0,0,0,1,0,0Z" transform="translate(445.334 303.258)" fill="#1d79d6"/><circle cx="4.859" cy="4.859" r="4.859" transform="translate(346.717 316.364)" fill="#24285b"/><circle cx="4.859" cy="4.859" r="4.859" transform="translate(364.773 316.364)" fill="#24285b"/><circle cx="4.859" cy="4.859" r="4.859" transform="translate(382.399 316.364)" fill="#24285b"/><circle cx="4.859" cy="4.859" r="4.859" transform="translate(400.454 316.364)" fill="#24285b"/><circle cx="4.859" cy="4.859" r="4.859" transform="translate(418.917 316.364)" fill="#24285b"/><path d="M71.469,215.656s-22.6.633-21.445-13.242,19.954-.181,19.954-.181Z" transform="translate(9.702 217.222)" fill="#f4a28c"/><rect width="19.016" height="43.184" rx="3" transform="matrix(0.537, -0.844, 0.844, 0.537, 42.28, 407.082)" fill="#78af1b"/><path d="M58.106,375.728S-5.981,120,134.938,46.767c31.818-16.546,233.186-59.093,423.437,42.949" transform="translate(1.62 0)" fill="none" stroke="#6b7499" stroke-linecap="round" stroke-linejoin="round" stroke-width="2" stroke-dasharray="2 10" opacity="0.83"/><path d="M335.381,254.7s-19.231-5.265-23.411-23.185c0,0,29.806-6.011,30.643,24.858Z" transform="translate(339.749 261.114)" fill="#207ca6" opacity="0.58"/><path d="M327,263.588s-13.446-21.242-1.627-41.128c0,0,22.6,14.395,12.609,41.173Z" transform="translate(350.506 250.303)" fill="#207ca6" opacity="0.73"/><path d="M324.91,255.561s7.1-22.44,28.564-26.711c0,0,4.045,14.576-13.9,26.756Z" transform="translate(356.05 258.353)" fill="#207ca6"/><path d="M318.73,240.44l3.909,26.688,24.564.113,3.616-26.665Z" transform="translate(348.265 272.954)" fill="#942864"/><rect width="120.152" height="120.152" rx="22" transform="translate(568.175 97.55)" fill="#858db5"/><path d="M291.17,94.191l13.965,23.23,33.49-44.2" transform="translate(313.546 62.294)" fill="none" stroke="#252c4a" stroke-linecap="round" stroke-linejoin="round" stroke-width="10"/></g></svg>