<svg xmlns="http://www.w3.org/2000/svg" width="82.963" height="57.94" viewBox="0 0 82.963 57.94"><g transform="translate(-138 -6.54)"><path d="M29.36-16.44a18.542,18.542,0,0,1-.48,4.26A17.326,17.326,0,0,1,27.5-8.35a16.132,16.132,0,0,1-2.18,3.28,15.238,15.238,0,0,1-2.86,2.59l5.82,7.96H22.92a7.307,7.307,0,0,1-2.06-.27,2.693,2.693,0,0,1-1.5-1.13L16.54.02a16.6,16.6,0,0,1-3.18.3A12.685,12.685,0,0,1,8.19-.69,11.466,11.466,0,0,1,4.3-3.45,12.065,12.065,0,0,1,1.85-7.57,15.027,15.027,0,0,1,1-12.68a18.37,18.37,0,0,1,.55-4.53,17.327,17.327,0,0,1,1.56-4.03,15.977,15.977,0,0,1,2.45-3.38,15.216,15.216,0,0,1,3.22-2.59,15.847,15.847,0,0,1,3.86-1.66,16.052,16.052,0,0,1,4.4-.59,12.633,12.633,0,0,1,5.15,1.01,11.3,11.3,0,0,1,3.88,2.77,12.241,12.241,0,0,1,2.44,4.14A15.052,15.052,0,0,1,29.36-16.44Zm-6.68.16a11.627,11.627,0,0,0-.43-3.27,7.334,7.334,0,0,0-1.26-2.52,5.641,5.641,0,0,0-2.03-1.62,6.264,6.264,0,0,0-2.72-.57,7.581,7.581,0,0,0-3.58.83A7.879,7.879,0,0,0,9.97-21.1a10.974,10.974,0,0,0-1.7,3.61,17.316,17.316,0,0,0-.59,4.67A11.779,11.779,0,0,0,8.1-9.56a7.308,7.308,0,0,0,1.23,2.5,5.507,5.507,0,0,0,2.01,1.61,6.312,6.312,0,0,0,2.74.57,7.717,7.717,0,0,0,3.59-.82,7.75,7.75,0,0,0,2.7-2.32,11.132,11.132,0,0,0,1.71-3.6A16.936,16.936,0,0,0,22.68-16.28Z" transform="translate(137 59)" fill="#858db5"/><path d="M29.36-16.44a18.542,18.542,0,0,1-.48,4.26A17.326,17.326,0,0,1,27.5-8.35a16.132,16.132,0,0,1-2.18,3.28,15.238,15.238,0,0,1-2.86,2.59l5.82,7.96H22.92a7.307,7.307,0,0,1-2.06-.27,2.693,2.693,0,0,1-1.5-1.13L16.54.02a16.6,16.6,0,0,1-3.18.3A12.685,12.685,0,0,1,8.19-.69,11.466,11.466,0,0,1,4.3-3.45,12.065,12.065,0,0,1,1.85-7.57,15.027,15.027,0,0,1,1-12.68a18.37,18.37,0,0,1,.55-4.53,17.327,17.327,0,0,1,1.56-4.03,15.977,15.977,0,0,1,2.45-3.38,15.216,15.216,0,0,1,3.22-2.59,15.847,15.847,0,0,1,3.86-1.66,16.052,16.052,0,0,1,4.4-.59,12.633,12.633,0,0,1,5.15,1.01,11.3,11.3,0,0,1,3.88,2.77,12.241,12.241,0,0,1,2.44,4.14A15.052,15.052,0,0,1,29.36-16.44Zm-6.68.16a11.627,11.627,0,0,0-.43-3.27,7.334,7.334,0,0,0-1.26-2.52,5.641,5.641,0,0,0-2.03-1.62,6.264,6.264,0,0,0-2.72-.57,7.581,7.581,0,0,0-3.58.83A7.879,7.879,0,0,0,9.97-21.1a10.974,10.974,0,0,0-1.7,3.61,17.316,17.316,0,0,0-.59,4.67A11.779,11.779,0,0,0,8.1-9.56a7.308,7.308,0,0,0,1.23,2.5,5.507,5.507,0,0,0,2.01,1.61,6.312,6.312,0,0,0,2.74.57,7.717,7.717,0,0,0,3.59-.82,7.75,7.75,0,0,0,2.7-2.32,11.132,11.132,0,0,0,1.71-3.6A16.936,16.936,0,0,0,22.68-16.28Z" transform="translate(152 36)" fill="#858db5"/><path d="M5.049-11.407,4.191-4.169q-.022.176-.033.324t-.011.281a1.244,1.244,0,0,0,.2.814.771.771,0,0,0,.611.231,1.529,1.529,0,0,0,.72-.2,2.948,2.948,0,0,0,.732-.572,4.6,4.6,0,0,0,.655-.9,5.713,5.713,0,0,0,.5-1.177l.737-6.039h3.41L10.329,0H8.591q-1.21,0-1.21-1.122v-.726A5.664,5.664,0,0,1,5.61-.319a4.193,4.193,0,0,1-1.969.5A2.917,2.917,0,0,1,2.47-.055a2.578,2.578,0,0,1-.924-.677,3.118,3.118,0,0,1-.605-1.1,4.818,4.818,0,0,1-.215-1.5q0-.2.016-.407t.039-.429l.858-7.238Zm12.364,0L16.049,0H12.683l1.364-11.407Zm.638-3.124a1.708,1.708,0,0,1-.176.765,2.172,2.172,0,0,1-.462.627,2.248,2.248,0,0,1-.655.429,1.88,1.88,0,0,1-.753.16,1.766,1.766,0,0,1-.737-.16,2.093,2.093,0,0,1-.622-.429,2.156,2.156,0,0,1-.434-.627,1.8,1.8,0,0,1-.165-.765,1.839,1.839,0,0,1,.165-.77,2.1,2.1,0,0,1,.446-.638,2.187,2.187,0,0,1,.633-.434,1.766,1.766,0,0,1,.737-.16,1.924,1.924,0,0,1,.759.154,2.061,2.061,0,0,1,.644.429,2.188,2.188,0,0,1,.451.638A1.814,1.814,0,0,1,18.051-14.531ZM27.423-2A10.4,10.4,0,0,1,26.367-.979a4.939,4.939,0,0,1-1.045.671,4.788,4.788,0,0,1-1.149.369,7.268,7.268,0,0,1-1.347.116,4.573,4.573,0,0,1-1.8-.341,3.846,3.846,0,0,1-1.369-.968,4.354,4.354,0,0,1-.875-1.518,6.1,6.1,0,0,1-.308-2A7.689,7.689,0,0,1,18.925-7.3,6.959,6.959,0,0,1,20.2-9.5a6.159,6.159,0,0,1,1.941-1.5,5.476,5.476,0,0,1,2.464-.555,4.53,4.53,0,0,1,1.963.39,4.107,4.107,0,0,1,1.469,1.227l-1.1,1.265a1.454,1.454,0,0,1-.275.215.644.644,0,0,1-.341.094.679.679,0,0,1-.368-.094q-.149-.093-.324-.2a2.634,2.634,0,0,0-.429-.2,1.939,1.939,0,0,0-.66-.094,1.869,1.869,0,0,0-.985.292,2.814,2.814,0,0,0-.852.842,4.61,4.61,0,0,0-.6,1.353,6.763,6.763,0,0,0-.226,1.826,3.358,3.358,0,0,0,.132,1,2.057,2.057,0,0,0,.363.7,1.528,1.528,0,0,0,.539.423,1.548,1.548,0,0,0,.66.143,2.068,2.068,0,0,0,.852-.148,3.287,3.287,0,0,0,.567-.324q.242-.176.451-.325a.851.851,0,0,1,.506-.149.739.739,0,0,1,.324.077.8.8,0,0,1,.27.209Zm6.138-14.465L32.428-7.238h.231a1.037,1.037,0,0,0,.462-.088,1.068,1.068,0,0,0,.352-.319l2.354-3.212a1.364,1.364,0,0,1,.462-.418,1.318,1.318,0,0,1,.616-.132h3.058l-3.19,4.059a3.176,3.176,0,0,1-.484.506,3.914,3.914,0,0,1-.55.385,2.057,2.057,0,0,1,.4.435,3.053,3.053,0,0,1,.3.566L38.731,0h-2.97a1.263,1.263,0,0,1-.6-.127.844.844,0,0,1-.368-.446L33.209-4.609a.767.767,0,0,0-.258-.358.9.9,0,0,0-.445-.082h-.352L31.537,0H28.171l2.024-16.467Z" transform="translate(181 37)" fill="#858db5"/><path d="M5.049-11.407,4.191-4.169q-.022.176-.033.324t-.011.281a1.244,1.244,0,0,0,.2.814.771.771,0,0,0,.611.231,1.529,1.529,0,0,0,.72-.2,2.948,2.948,0,0,0,.732-.572,4.6,4.6,0,0,0,.655-.9,5.713,5.713,0,0,0,.5-1.177l.737-6.039h3.41L10.329,0H8.591q-1.21,0-1.21-1.122v-.726A5.664,5.664,0,0,1,5.61-.319a4.193,4.193,0,0,1-1.969.5A2.917,2.917,0,0,1,2.47-.055a2.578,2.578,0,0,1-.924-.677,3.118,3.118,0,0,1-.605-1.1,4.818,4.818,0,0,1-.215-1.5q0-.2.016-.407t.039-.429l.858-7.238Zm12.364,0L16.049,0H12.683l1.364-11.407Zm.638-3.124a1.708,1.708,0,0,1-.176.765,2.172,2.172,0,0,1-.462.627,2.248,2.248,0,0,1-.655.429,1.88,1.88,0,0,1-.753.16,1.766,1.766,0,0,1-.737-.16,2.093,2.093,0,0,1-.622-.429,2.156,2.156,0,0,1-.434-.627,1.8,1.8,0,0,1-.165-.765,1.839,1.839,0,0,1,.165-.77,2.1,2.1,0,0,1,.446-.638,2.187,2.187,0,0,1,.633-.434,1.766,1.766,0,0,1,.737-.16,1.924,1.924,0,0,1,.759.154,2.061,2.061,0,0,1,.644.429,2.188,2.188,0,0,1,.451.638A1.814,1.814,0,0,1,18.051-14.531ZM27.8-10.043a2.062,2.062,0,0,1-.2.671,3.013,3.013,0,0,1-.347.55L22.319-2.53h4.488L26.5,0H17.963l.176-1.386a1.642,1.642,0,0,1,.176-.522,3.547,3.547,0,0,1,.374-.6l4.972-6.369H19.327l.308-2.53h8.338Z" transform="translate(166 60)" fill="#858db5"/></g></svg>