<svg xmlns="http://www.w3.org/2000/svg" width="448.407" height="80.855" viewBox="0 0 448.407 80.855"><path d="M61.163-75.915v11.6H38.325V0H24.2V-64.312H1.26v-11.6ZM69.4,0V-78.015H82.372v29.977a27.442,27.442,0,0,1,6.93-4.83,20.083,20.083,0,0,1,8.873-1.837,19.311,19.311,0,0,1,7.822,1.5,15.457,15.457,0,0,1,5.7,4.2,18.463,18.463,0,0,1,3.465,6.458,27.443,27.443,0,0,1,1.181,8.269V0H103.372V-34.283q0-4.935-2.284-7.639t-6.851-2.7a13.5,13.5,0,0,0-6.3,1.522,22.578,22.578,0,0,0-5.565,4.147V0Zm101.9,0H165.48a6.277,6.277,0,0,1-2.887-.551,3.548,3.548,0,0,1-1.575-2.231l-1.155-3.832a44.477,44.477,0,0,1-4.016,3.229,24.385,24.385,0,0,1-4.069,2.336A20.754,20.754,0,0,1,147.315.368a26.847,26.847,0,0,1-5.25.473,20.623,20.623,0,0,1-6.3-.922A13.568,13.568,0,0,1,130.8-2.847a12.558,12.558,0,0,1-3.229-4.583A16.305,16.305,0,0,1,126.42-13.8a12.606,12.606,0,0,1,1.6-6.032,15.094,15.094,0,0,1,5.329-5.373,34.017,34.017,0,0,1,9.923-3.977,63.378,63.378,0,0,1,15.383-1.58v-3.174q0-5.449-2.284-8.068a8.338,8.338,0,0,0-6.641-2.618,16.072,16.072,0,0,0-5.25.735,20.31,20.31,0,0,0-3.649,1.654q-1.549.919-2.861,1.654a5.809,5.809,0,0,1-2.888.735,3.752,3.752,0,0,1-2.257-.682,5.372,5.372,0,0,1-1.523-1.68l-2.362-4.147a32.03,32.03,0,0,1,22.417-8.505,21.659,21.659,0,0,1,8.426,1.549,17.912,17.912,0,0,1,6.274,4.305,18.424,18.424,0,0,1,3.911,6.589,25.319,25.319,0,0,1,1.339,8.4Zm-25.2-8.085a17.468,17.468,0,0,0,3.675-.362,14.071,14.071,0,0,0,3.176-1.085,16.927,16.927,0,0,0,2.888-1.783,26.078,26.078,0,0,0,2.809-2.506v-9.016a52.652,52.652,0,0,0-9.476.714,25.037,25.037,0,0,0-6.116,1.824,7.873,7.873,0,0,0-3.281,2.591,5.762,5.762,0,0,0-.971,3.225q0,3.437,2.021,4.918A8.715,8.715,0,0,0,146.107-8.085ZM201.757.84q-6.982,0-10.762-3.964t-3.78-10.946V-44.153h-5.46a2.622,2.622,0,0,1-1.811-.683,2.61,2.61,0,0,1-.761-2.048v-5.145l8.663-1.417,2.73-14.7a2.6,2.6,0,0,1,.971-1.628,3.08,3.08,0,0,1,1.916-.577h6.72v16.957h14.175v9.24H200.182v29.19a5.722,5.722,0,0,0,1.26,3.938,4.274,4.274,0,0,0,3.36,1.417,6.1,6.1,0,0,0,2.021-.289,11.125,11.125,0,0,0,1.417-.6q.6-.315,1.076-.6a1.8,1.8,0,0,1,.945-.289,1.484,1.484,0,0,1,.945.289,4.38,4.38,0,0,1,.788.866l3.885,6.3a19.631,19.631,0,0,1-6.51,3.57A24.231,24.231,0,0,1,201.757.84Zm34.178-76.755V-60.8l-1.208,8.19a7.629,7.629,0,0,1-1.339,3.544,3.8,3.8,0,0,1-3.176,1.234,3.811,3.811,0,0,1-2.993-1.234,6.529,6.529,0,0,1-1.417-3.544l-1.155-8.19v-15.12Zm45.728,32.55a3.46,3.46,0,0,1-1.1,1.181,2.856,2.856,0,0,1-1.47.341,4.631,4.631,0,0,1-2.021-.525q-1.076-.525-2.494-1.181a22.839,22.839,0,0,0-3.229-1.181,15.464,15.464,0,0,0-4.279-.525,9.97,9.97,0,0,0-6.038,1.627,5.049,5.049,0,0,0-2.205,4.252,4.056,4.056,0,0,0,1.129,2.914,10.149,10.149,0,0,0,2.993,2.074,29.287,29.287,0,0,0,4.226,1.6q2.363.709,4.83,1.549t4.83,1.916a16.841,16.841,0,0,1,4.226,2.73,12.681,12.681,0,0,1,2.992,3.964,12.573,12.573,0,0,1,1.129,5.565A17.878,17.878,0,0,1,283.763-9.9a15.754,15.754,0,0,1-4.148,5.67A19.436,19.436,0,0,1,272.869-.5,29.106,29.106,0,0,1,263.655.84a29.329,29.329,0,0,1-5.434-.5,32.072,32.072,0,0,1-5.093-1.391,28.182,28.182,0,0,1-4.515-2.1,21.915,21.915,0,0,1-3.649-2.625l2.992-4.935a4.232,4.232,0,0,1,1.365-1.365,3.826,3.826,0,0,1,1.995-.473,4.194,4.194,0,0,1,2.284.682q1.076.682,2.494,1.47a22.29,22.29,0,0,0,3.334,1.47,14.669,14.669,0,0,0,4.856.682,12.6,12.6,0,0,0,3.964-.551,8.387,8.387,0,0,0,2.73-1.444,5.42,5.42,0,0,0,1.575-2.074,6.217,6.217,0,0,0,.5-2.441,4.355,4.355,0,0,0-1.129-3.1,9.88,9.88,0,0,0-2.992-2.1,28.9,28.9,0,0,0-4.253-1.6Q262.29-22.26,259.8-23.1a45.164,45.164,0,0,1-4.882-1.969,16.641,16.641,0,0,1-4.253-2.861,12.949,12.949,0,0,1-2.992-4.253,14.839,14.839,0,0,1-1.129-6.09,15.516,15.516,0,0,1,1.313-6.3,14.777,14.777,0,0,1,3.859-5.224,19.163,19.163,0,0,1,6.353-3.57,26.463,26.463,0,0,1,8.794-1.339,26.92,26.92,0,0,1,10.133,1.837,22.885,22.885,0,0,1,7.613,4.83ZM358.05,0h-5.828a6.277,6.277,0,0,1-2.888-.551,3.548,3.548,0,0,1-1.575-2.231L346.6-6.615a44.479,44.479,0,0,1-4.016,3.229A24.385,24.385,0,0,1,338.52-1.05,20.753,20.753,0,0,1,334.057.368a26.847,26.847,0,0,1-5.25.473,20.623,20.623,0,0,1-6.3-.922,13.567,13.567,0,0,1-4.961-2.765,12.557,12.557,0,0,1-3.229-4.583,16.305,16.305,0,0,1-1.155-6.373,12.606,12.606,0,0,1,1.6-6.032,15.094,15.094,0,0,1,5.329-5.373,34.018,34.018,0,0,1,9.923-3.977,63.378,63.378,0,0,1,15.382-1.58v-3.174q0-5.449-2.284-8.068a8.338,8.338,0,0,0-6.641-2.618,16.072,16.072,0,0,0-5.25.735,20.31,20.31,0,0,0-3.649,1.654q-1.549.919-2.861,1.654a5.809,5.809,0,0,1-2.887.735,3.752,3.752,0,0,1-2.258-.682,5.372,5.372,0,0,1-1.522-1.68l-2.363-4.147A32.03,32.03,0,0,1,338.1-54.863a21.659,21.659,0,0,1,8.426,1.549,17.912,17.912,0,0,1,6.274,4.305,18.424,18.424,0,0,1,3.911,6.589,25.319,25.319,0,0,1,1.339,8.4Zm-25.2-8.085a17.468,17.468,0,0,0,3.675-.362A14.071,14.071,0,0,0,339.7-9.532a16.926,16.926,0,0,0,2.887-1.783,26.072,26.072,0,0,0,2.809-2.506v-9.016a52.652,52.652,0,0,0-9.476.714A25.038,25.038,0,0,0,329.8-20.3a7.873,7.873,0,0,0-3.281,2.591,5.763,5.763,0,0,0-.971,3.225q0,3.437,2.021,4.918A8.715,8.715,0,0,0,332.85-8.085Zm51.765-69.93V0H371.647V-78.015Zm28.455,0V0H400.1V-78.015Zm32.918,2.1v30.03a91.545,91.545,0,0,1-.473,9.371q-.473,4.594-1.26,9.739h-8.767q-.787-5.145-1.26-9.739a91.545,91.545,0,0,1-.473-9.371v-30.03ZM431.76-7.14a8.074,8.074,0,0,1,.6-3.1,7.4,7.4,0,0,1,1.68-2.52,8.269,8.269,0,0,1,2.546-1.68,7.911,7.911,0,0,1,3.15-.63,7.781,7.781,0,0,1,3.1.63,7.945,7.945,0,0,1,2.52,1.68,7.945,7.945,0,0,1,1.68,2.52,7.781,7.781,0,0,1,.63,3.1,7.724,7.724,0,0,1-.63,3.124,8.024,8.024,0,0,1-1.68,2.494,7.6,7.6,0,0,1-2.52,1.654,8.074,8.074,0,0,1-3.1.6,8.21,8.21,0,0,1-3.15-.6,7.9,7.9,0,0,1-2.546-1.654,7.464,7.464,0,0,1-1.68-2.494A8.015,8.015,0,0,1,431.76-7.14Z" transform="translate(-0.26 79.015)" fill="none" stroke="#e1e2e6" stroke-width="2"/></svg>